<?xml version="1.0" encoding="UTF-8"?>
<svg width="1200px" height="900px" viewBox="0 0 1200 900" version="1.1" xmlns="http://www.w3.org/2000/svg" xmlns:xlink="http://www.w3.org/1999/xlink">
    <!-- Generator: Sketch 57.1 (83088) - https://sketch.com -->
    <title>MVC (Rails)</title>
    <desc>Created with Sketch.</desc>
    <g id="MVC-(Rails)" stroke="none" stroke-width="1" fill="none" fill-rule="evenodd">
        <text id="Model-View-Controlle" font-family="HelveticaNeue, Helvetica Neue" font-size="48" font-weight="normal" fill="#151515">
            <tspan x="63" y="85">Model View Controller (Rails)</tspan>
        </text>
        <text id="ORM" font-family="HelveticaNeue, Helvetica Neue" font-size="12" font-weight="normal" fill="#151515">
            <tspan x="175" y="703">ORM</tspan>
        </text>
        <rect id="Rectangle" stroke="#494949" stroke-width="5" x="898" y="189" width="200" height="648"></rect>
        <rect id="Rectangle" stroke="#494949" stroke-width="5" x="63" y="189" width="577" height="436"></rect>
        <g id="Group-6" transform="translate(136.000000, 382.000000)">
            <ellipse id="Oval" stroke="#979797" fill="#D8D8D8" cx="218" cy="29.5" rx="218" ry="29.5"></ellipse>
            <text id="Ruby" font-family="HelveticaNeue, Helvetica Neue" font-size="16" font-weight="normal" fill="#151515">
                <tspan x="202.828" y="36">Ruby</tspan>
            </text>
        </g>
        <g id="Group-8" transform="translate(99.000000, 577.000000)" stroke="#979797">
            <path d="M61,0.5 L61,142.5" id="Line-5" stroke-linecap="square"></path>
            <g id="Group-4" transform="translate(0.000000, 142.500000)" fill="#D8D8D8">
                <path d="M0,17 C0,7.61115925 27.3106303,0 61,0 C94.352476,0 121.45315,7.45969718 121.991828,16.7188739 L122,17 L122,103 L122,103 C122,112.388841 94.6893697,120 61,120 C27.3106303,120 0,112.388841 0,103 L0,17 Z" id="Combined-Shape"></path>
            </g>
        </g>
        <text id="Server-(Apache/Other" font-family="HelveticaNeue-Italic, Helvetica Neue" font-size="16" font-style="italic" font-weight="normal" fill="#151515">
            <tspan x="63" y="162">Server (Apache/Others) </tspan>
        </text>
        <text id="Client-(browser)" font-family="HelveticaNeue-Italic, Helvetica Neue" font-size="16" font-style="italic" font-weight="normal" fill="#151515">
            <tspan x="898" y="162">Client (browser)</tspan>
        </text>
        <g id="Group-2" transform="translate(646.000000, 237.000000)">
            <path id="Line" d="M24.5,17.5 L24.5,27.5 L246.5,27.5 L246.5,31.5 L24.5,31.5 L24.5,41.5 L0.5,29.5 L24.5,17.5 Z" fill="#373737" fill-rule="nonzero"></path>
            <path id="Line" d="M228,45 L252,57 L228,69 L228,59 L-1,59 L-1,55 L228,55 L228,45 Z" fill="#373737" fill-rule="nonzero"></path>
            <text id="GET-/" font-family="HelveticaNeue-Italic, Helvetica Neue" font-size="16" font-style="italic" font-weight="normal" fill="#151515">
                <tspan x="62" y="15">GET /</tspan>
            </text>
        </g>
        <g id="Group-2" transform="translate(645.000000, 577.000000)">
            <path id="Line" d="M24.5,17.5 L24.5,27.5 L246.5,27.5 L246.5,31.5 L24.5,31.5 L24.5,41.5 L0.5,29.5 L24.5,17.5 Z" fill="#373737" fill-rule="nonzero"></path>
            <path id="Line" d="M228,45 L252,57 L228,69 L228,59 L-1,59 L-1,55 L228,55 L228,45 Z" fill="#373737" fill-rule="nonzero"></path>
            <text id="GET-/data" font-family="HelveticaNeue-Italic, Helvetica Neue" font-size="16" font-style="italic" font-weight="normal" fill="#151515">
                <tspan x="62" y="15">GET /data</tspan>
            </text>
        </g>
        <g id="Group-2" transform="translate(646.000000, 407.000000)">
            <path id="Line" d="M24.5,17.5 L24.5,27.5 L246.5,27.5 L246.5,31.5 L24.5,31.5 L24.5,41.5 L0.5,29.5 L24.5,17.5 Z" fill="#373737" fill-rule="nonzero"></path>
            <path id="Line" d="M228,45 L252,57 L228,69 L228,59 L-1,59 L-1,55 L228,55 L228,45 Z" fill="#373737" fill-rule="nonzero"></path>
            <text id="GET-/main.js" font-family="HelveticaNeue-Italic, Helvetica Neue" font-size="16" font-style="italic" font-weight="normal" fill="#151515">
                <tspan x="62" y="15">GET /main.js</tspan>
            </text>
        </g>
        <g id="Group" transform="translate(731.000000, 301.000000)">
            <g id="File" transform="translate(13.000000, 0.000000)" stroke="#979797">
                <rect id="Rectangle" fill="#50E3C2" x="0" y="0" width="48" height="63"></rect>
                <path d="M8.5,9.5 L40.5,9.5" id="Line-2" stroke-linecap="square"></path>
                <path d="M8.5,24.5 L40.5,24.5" id="Line-2" stroke-linecap="square"></path>
                <path d="M8.5,39.5 L40.5,39.5" id="Line-2" stroke-linecap="square"></path>
                <path d="M8.5,54.5 L40.5,54.5" id="Line-2" stroke-linecap="square"></path>
            </g>
            <text id="index.html" font-family="HelveticaNeue-Italic, Helvetica Neue" font-size="16" font-style="italic" font-weight="normal" fill="#151515">
                <tspan x="0.104" y="78">index.html</tspan>
            </text>
        </g>
        <g id="Group-5" transform="translate(99.000000, 197.000000)">
            <g id="Group" transform="translate(159.000000, 29.000000)">
                <g id="File" transform="translate(26.000000, 0.000000)" stroke="#979797">
                    <rect id="Rectangle" fill="#F8E71C" x="0" y="0" width="48" height="63"></rect>
                    <path d="M8.5,9.5 L40.5,9.5" id="Line-2" stroke-linecap="square"></path>
                    <path d="M8.5,24.5 L40.5,24.5" id="Line-2" stroke-linecap="square"></path>
                    <path d="M8.5,39.5 L40.5,39.5" id="Line-2" stroke-linecap="square"></path>
                    <path d="M8.5,54.5 L40.5,54.5" id="Line-2" stroke-linecap="square"></path>
                </g>
                <text id="public/main.js" font-family="HelveticaNeue-Italic, Helvetica Neue" font-size="16" font-style="italic" font-weight="normal" fill="#151515">
                    <tspan x="0.512" y="78">public/main.js</tspan>
                </text>
            </g>
            <rect id="Rectangle" stroke="#979797" x="0" y="20" width="268" height="119"></rect>
            <text id="Static" font-family="HelveticaNeue, Helvetica Neue" font-size="14" font-weight="normal" fill="#151515">
                <tspan x="6" y="13">Static</tspan>
            </text>
        </g>
        <g id="Group" transform="translate(745.000000, 474.000000)">
            <g id="File" transform="translate(2.000000, 0.000000)" stroke="#979797">
                <rect id="Rectangle" fill="#F8E71C" x="0" y="0" width="48" height="63"></rect>
                <path d="M8.5,9.5 L40.5,9.5" id="Line-2" stroke-linecap="square"></path>
                <path d="M8.5,24.5 L40.5,24.5" id="Line-2" stroke-linecap="square"></path>
                <path d="M8.5,39.5 L40.5,39.5" id="Line-2" stroke-linecap="square"></path>
                <path d="M8.5,54.5 L40.5,54.5" id="Line-2" stroke-linecap="square"></path>
            </g>
            <text id="main.js" font-family="HelveticaNeue-Italic, Helvetica Neue" font-size="16" font-style="italic" font-weight="normal" fill="#151515">
                <tspan x="0.96" y="78">main.js</tspan>
            </text>
        </g>
        <g id="Group" transform="translate(736.000000, 641.000000)">
            <g id="File" transform="translate(13.000000, 0.000000)" stroke="#979797">
                <rect id="Rectangle" fill="#E8C6EF" x="0" y="0" width="48" height="63"></rect>
                <path d="M8.5,9.5 L40.5,9.5" id="Line-2" stroke-linecap="square"></path>
                <path d="M8.5,24.5 L40.5,24.5" id="Line-2" stroke-linecap="square"></path>
                <path d="M8.5,39.5 L40.5,39.5" id="Line-2" stroke-linecap="square"></path>
                <path d="M8.5,54.5 L40.5,54.5" id="Line-2" stroke-linecap="square"></path>
            </g>
            <text id="items.json" font-family="HelveticaNeue-Italic, Helvetica Neue" font-size="16" font-style="italic" font-weight="normal" fill="#151515">
                <tspan x="0.856" y="78">items.json</tspan>
            </text>
        </g>
        <g id="Group" transform="translate(115.000000, 230.000000)">
            <g id="File" transform="translate(13.000000, 0.000000)" stroke="#979797">
                <rect id="Rectangle" fill="#E8C6EF" x="0" y="0" width="48" height="63"></rect>
                <path d="M8.5,9.5 L40.5,9.5" id="Line-2" stroke-linecap="square"></path>
                <path d="M8.5,24.5 L40.5,24.5" id="Line-2" stroke-linecap="square"></path>
                <path d="M8.5,39.5 L40.5,39.5" id="Line-2" stroke-linecap="square"></path>
                <path d="M8.5,54.5 L40.5,54.5" id="Line-2" stroke-linecap="square"></path>
            </g>
            <text id="items.json" font-family="HelveticaNeue-Italic, Helvetica Neue" font-size="16" font-style="italic" font-weight="normal" fill="#151515">
                <tspan x="0.856" y="78">items.json</tspan>
            </text>
        </g>
        <g id="Group-3" transform="translate(945.000000, 208.000000)">
            <rect id="Rectangle" stroke="#979797" x="0" y="0" width="106" height="157"></rect>
            <text id="Title" font-family="HelveticaNeue-Bold, Helvetica Neue" font-size="16" font-weight="bold" fill="#151515">
                <tspan x="9" y="25">Title</tspan>
            </text>
            <text id="Lorem-ipsum-dolor-si" font-family="HelveticaNeue, Helvetica Neue" font-size="6" font-weight="normal" fill="#151515">
                <tspan x="9" y="44">Lorem ipsum dolor </tspan>
                <tspan x="9" y="51">sit amet, </tspan>
                <tspan x="9" y="58">consectetur </tspan>
                <tspan x="9" y="65">adipisicing elit. </tspan>
            </text>
            <text id="Items" font-family="HelveticaNeue-Bold, Helvetica Neue" font-size="6" font-weight="bold" fill="#151515">
                <tspan x="9" y="81">Items</tspan>
            </text>
            <rect id="Rectangle" fill="#D8D8D8" x="9" y="91" width="88" height="48"></rect>
        </g>
        <g id="Group-3" transform="translate(945.000000, 596.000000)">
            <rect id="Rectangle" stroke="#979797" x="0" y="0" width="106" height="157"></rect>
            <text id="Title" font-family="HelveticaNeue-Bold, Helvetica Neue" font-size="16" font-weight="bold" fill="#151515">
                <tspan x="9" y="25">Title</tspan>
            </text>
            <text id="Lorem-ipsum-dolor-si" font-family="HelveticaNeue, Helvetica Neue" font-size="6" font-weight="normal" fill="#151515">
                <tspan x="9" y="44">Lorem ipsum dolor </tspan>
                <tspan x="9" y="51">sit amet, </tspan>
                <tspan x="9" y="58">consectetur </tspan>
                <tspan x="9" y="65">adipisicing elit. </tspan>
            </text>
            <text id="Items" font-family="HelveticaNeue-Bold, Helvetica Neue" font-size="6" font-weight="bold" fill="#151515">
                <tspan x="9" y="81">Items</tspan>
            </text>
            <rect id="Rectangle" fill="#D8D8D8" x="9" y="91" width="88" height="48"></rect>
        </g>
        <text id="*-Item-1-*-Item-2-*" font-family="HelveticaNeue, Helvetica Neue" font-size="8" font-weight="normal" fill="#151515">
            <tspan x="959" y="699">* Item 1</tspan>
            <tspan x="959" y="709">* Item 2</tspan>
            <tspan x="959" y="719">* Item 3</tspan>
            <tspan x="959" y="729">* Item 4</tspan>
            <tspan x="959" y="739"></tspan>
        </text>
        <g id="Group-4" transform="translate(990.000000, 365.000000)" fill="#979797" fill-rule="nonzero">
            <path id="Line-5" d="M3.00677109,-0.00668060971 L4.00668061,0.00677108789 L1.114,215.007 L5.11393228,215.061302 L0.493274151,223.999955 L-3.88525342,214.940236 L0.114,214.994 L3.00677109,-0.00668060971 Z"></path>
        </g>
        <g id="Group-Copy" transform="translate(99.000000, 423.000000)">
            <g id="Group-7" transform="translate(188.000000, 0.000000)">
                <g id="File" fill="#F8E71C" stroke="#979797">
                    <rect id="Rectangle" x="0" y="0" width="133" height="126"></rect>
                </g>
                <text id="Controllers" font-family="HelveticaNeue-Italic, Helvetica Neue" font-size="16" font-style="italic" font-weight="normal" fill="#151515">
                    <tspan x="27.692" y="141">Controllers</tspan>
                </text>
            </g>
            <g id="Group-7" transform="translate(376.000000, 0.000000)">
                <g id="File" fill="#50E3C2" stroke="#979797">
                    <rect id="Rectangle" x="0" y="0" width="133" height="126"></rect>
                </g>
                <text id="Views" font-family="HelveticaNeue-Italic, Helvetica Neue" font-size="16" font-style="italic" font-weight="normal" fill="#151515">
                    <tspan x="45.764" y="141">Views</tspan>
                </text>
                <text id="Template-Language" font-family="HelveticaNeue-Italic, Helvetica Neue" font-size="16" font-style="italic" font-weight="normal" fill="#151515">
                    <tspan x="34.696" y="24">Template </tspan>
                    <tspan x="31.872" y="42">Language</tspan>
                </text>
            </g>
            <g id="Group-7">
                <g id="File" fill="#F8E71C" stroke="#979797">
                    <rect id="Rectangle" x="0" y="0" width="133" height="126"></rect>
                </g>
                <text id="Models" font-family="HelveticaNeue-Italic, Helvetica Neue" font-size="16" font-style="italic" font-weight="normal" fill="#151515">
                    <tspan x="40.284" y="141">Models</tspan>
                </text>
            </g>
        </g>
        <path id="Line-10" d="M640.680899,265.816425 L641.183575,266.680899 L378.099,419.659 L380.110079,423.11739 L370.067763,423.751338 L375.585994,415.337116 L377.596,418.795 L640.680899,265.816425 Z" fill="#979797" fill-rule="nonzero"></path>
        <path id="Line-10" d="M240.767104,460.585227 L240.965,464.579 L283.474666,462.475889 L283.524111,463.474666 L241.014,465.578 L241.212103,469.574219 L232.000612,465.524722 L240.767104,460.585227 Z" fill="#979797" fill-rule="nonzero"></path>
        <path id="Line-9" d="M232.056112,488.949579 L280.101,494.096 L280.527771,490.120077 L288.997155,495.553267 L279.568973,499.06886 L279.994,495.091 L231.949579,489.943888 L232.056112,488.949579 Z" fill="#979797" fill-rule="nonzero"></path>
        <path id="Line-9" d="M419.556112,505.449579 L467.601,510.596 L468.027771,506.620077 L476.497155,512.053267 L467.068973,515.56886 L467.494,511.591 L419.449579,506.443888 L419.556112,505.449579 Z" fill="#979797" fill-rule="nonzero"></path>
        <path id="Line-9" d="M646.080289,294.506488 L649.076686,304.1123 L645.128,303.47 L608.913222,526.073801 L607.926199,525.913222 L644.141,303.309 L640.193478,302.667092 L646.080289,294.506488 Z" fill="#979797" fill-rule="nonzero"></path>
        <text id="AJAX" font-family="HelveticaNeue, Helvetica Neue" font-size="16" font-weight="normal" fill="#151515">
            <tspan x="999.592" y="570">AJAX</tspan>
        </text>
    </g>
</svg>