<?xml version="1.0" encoding="UTF-8"?>
<svg width="1200px" height="900px" viewBox="0 0 1200 900" version="1.1" xmlns="http://www.w3.org/2000/svg" xmlns:xlink="http://www.w3.org/1999/xlink">
    <!-- Generator: Sketch 57.1 (83088) - https://sketch.com -->
    <title>PHP</title>
    <desc>Created with Sketch.</desc>
    <g id="PHP" stroke="none" stroke-width="1" fill="none" fill-rule="evenodd">
        <text font-family="HelveticaNeue, Helvetica Neue" font-size="48" font-weight="normal" fill="#151515">
            <tspan x="63" y="85">PHP</tspan>
        </text>
        <rect id="Rectangle" stroke="#494949" stroke-width="5" x="898" y="189" width="200" height="648"></rect>
        <rect id="Rectangle" stroke="#494949" stroke-width="5" x="63" y="189" width="577" height="417"></rect>
        <g id="Group-5" transform="translate(361.000000, 275.000000)">
            <circle id="Oval" stroke="#979797" fill="#D8D8D8" cx="90.5" cy="90.5" r="90.5"></circle>
            <text id="PHP" font-family="HelveticaNeue, Helvetica Neue" font-size="16" font-weight="normal" fill="#151515">
                <tspan x="77" y="88">PHP</tspan>
            </text>
        </g>
        <path d="M356.5,371.5 L310.5,371.5" id="Line-3" stroke="#979797" stroke-linecap="square"></path>
        <path d="M640.5,613.5 L532.5,450.5" id="Line-4" stroke="#979797" stroke-linecap="square"></path>
        <path d="M418.5,450.5 L244.5,696.5" id="Line-5" stroke="#979797" stroke-linecap="square"></path>
        <text id="Server-(Apache/http-" font-family="HelveticaNeue-Italic, Helvetica Neue" font-size="16" font-style="italic" font-weight="normal" fill="#151515">
            <tspan x="63" y="162">Server (Apache/http-server)</tspan>
        </text>
        <text id="Client-(browser)" font-family="HelveticaNeue-Italic, Helvetica Neue" font-size="16" font-style="italic" font-weight="normal" fill="#151515">
            <tspan x="898" y="162">Client (browser)</tspan>
        </text>
        <path d="M633.5,274.5 L532.5,317.5" id="Line-6" stroke="#979797" stroke-linecap="square"></path>
        <g id="Group-4" transform="translate(122.000000, 636.000000)" fill="#D8D8D8" stroke="#979797">
            <path d="M0,17 C0,7.61115925 27.3106303,0 61,0 C94.352476,0 121.45315,7.45969718 121.991828,16.7188739 L122,17 L122,103 L122,103 C122,112.388841 94.6893697,120 61,120 C27.3106303,120 0,112.388841 0,103 L0,17 Z" id="Combined-Shape"></path>
        </g>
        <g id="Group-4" transform="translate(965.000000, 365.000000)">
            <text id="Reload" font-family="HelveticaNeue, Helvetica Neue" font-size="16" font-weight="normal" fill="#151515">
                <tspan x="0" y="127">Reload</tspan>
            </text>
            <path id="Line-5" d="M28.0067711,-0.00668060971 L29.0066806,0.00677108789 L26.114,215.007 L30.1139323,215.061302 L25.4932742,223.999955 L21.1147466,214.940236 L25.114,214.994 L28.0067711,-0.00668060971 Z" fill="#979797" fill-rule="nonzero"></path>
        </g>
        <g id="Group-Copy" transform="translate(105.000000, 255.000000)">
            <g id="File" fill="#F8E71C" stroke="#979797">
                <rect id="Rectangle" x="0" y="0" width="205" height="235"></rect>
            </g>
            <text id="index.pl" font-family="HelveticaNeue-Italic, Helvetica Neue" font-size="16" font-style="italic" font-weight="normal" fill="#151515">
                <tspan x="76.644" y="257">index.pl</tspan>
            </text>
            <text id="&lt;!doctype-html&gt;-&lt;htm" font-family="HelveticaNeue, Helvetica Neue" font-size="16" font-weight="normal" fill="#151515">
                <tspan x="14" y="26">&lt;!doctype html&gt;</tspan>
                <tspan x="14" y="44">&lt;html&gt;</tspan>
                <tspan x="14" y="62">&lt;body&gt;</tspan>
                <tspan x="14" y="80"></tspan>
                <tspan x="14" y="98">&lt;?php</tspan>
                <tspan x="14" y="116">echo "&lt;h2&gt;PHP is Fun!</tspan>
                <tspan x="14" y="134">&lt;/h2&gt;";</tspan>
                <tspan x="14" y="152">?&gt; </tspan>
                <tspan x="14" y="170"></tspan>
                <tspan x="14" y="188">&lt;/body&gt;</tspan>
                <tspan x="14" y="206">&lt;/html&gt;</tspan>
                <tspan x="14" y="224"></tspan>
            </text>
        </g>
        <text id="Code-inside-HTML" font-family="HelveticaNeue, Helvetica Neue" font-size="16" font-weight="normal" fill="#151515">
            <tspan x="122" y="543">Code inside HTML</tspan>
        </text>
        <g id="Group-6" transform="translate(945.000000, 596.000000)">
            <g id="Group-3">
                <rect id="Rectangle" stroke="#979797" x="0" y="0" width="106" height="157"></rect>
                <text id="Title" font-family="HelveticaNeue-Bold, Helvetica Neue" font-size="16" font-weight="bold" fill="#151515">
                    <tspan x="9" y="25">Title</tspan>
                </text>
                <text id="Lorem-ipsum-dolor-si" font-family="HelveticaNeue, Helvetica Neue" font-size="6" font-weight="normal" fill="#151515">
                    <tspan x="9" y="44">Lorem ipsum dolor </tspan>
                    <tspan x="9" y="51">sit amet, </tspan>
                    <tspan x="9" y="58">consectetur </tspan>
                    <tspan x="9" y="65">adipisicing elit. </tspan>
                </text>
                <text id="Items-Page-2" font-family="HelveticaNeue-Bold, Helvetica Neue" font-size="6" font-weight="bold" fill="#151515">
                    <tspan x="9" y="81">Items Page 2</tspan>
                </text>
                <rect id="Rectangle" fill="#D8D8D8" x="9" y="91" width="88" height="48"></rect>
            </g>
            <text id="*-Item-5-*-Item-6-*" font-family="HelveticaNeue, Helvetica Neue" font-size="8" font-weight="normal" fill="#151515">
                <tspan x="14" y="103">* Item 5</tspan>
                <tspan x="14" y="113">* Item 6</tspan>
                <tspan x="14" y="123">* Item 7</tspan>
                <tspan x="14" y="133">* Item 8</tspan>
                <tspan x="14" y="143"></tspan>
            </text>
        </g>
        <g id="Group-6-Copy" transform="translate(949.000000, 201.000000)">
            <g id="Group-3">
                <rect id="Rectangle" stroke="#979797" x="0" y="0" width="106" height="157"></rect>
                <text id="Title" font-family="HelveticaNeue-Bold, Helvetica Neue" font-size="16" font-weight="bold" fill="#151515">
                    <tspan x="9" y="25">Title</tspan>
                </text>
                <text id="Lorem-ipsum-dolor-si" font-family="HelveticaNeue, Helvetica Neue" font-size="6" font-weight="normal" fill="#151515">
                    <tspan x="9" y="44">Lorem ipsum dolor </tspan>
                    <tspan x="9" y="51">sit amet, </tspan>
                    <tspan x="9" y="58">consectetur </tspan>
                    <tspan x="9" y="65">adipisicing elit. </tspan>
                </text>
                <text id="Items-Page-1" font-family="HelveticaNeue-Bold, Helvetica Neue" font-size="6" font-weight="bold" fill="#151515">
                    <tspan x="9" y="81">Items Page 1</tspan>
                </text>
                <rect id="Rectangle" fill="#D8D8D8" x="9" y="91" width="88" height="48"></rect>
                <text id="*-Item-1-*-Item-2-*" font-family="HelveticaNeue, Helvetica Neue" font-size="8" font-weight="normal" fill="#151515">
                    <tspan x="14" y="103">* Item 1</tspan>
                    <tspan x="14" y="113">* Item 2</tspan>
                    <tspan x="14" y="123">* Item 3</tspan>
                    <tspan x="14" y="133">* Item 4</tspan>
                    <tspan x="14" y="143"></tspan>
                </text>
            </g>
        </g>
        <g id="Group-2" transform="translate(646.000000, 237.000000)">
            <path id="Line" d="M24.5,17.5 L24.5,27.5 L246.5,27.5 L246.5,31.5 L24.5,31.5 L24.5,41.5 L0.5,29.5 L24.5,17.5 Z" fill="#373737" fill-rule="nonzero"></path>
            <path id="Line" d="M228,45 L252,57 L228,69 L228,59 L-1,59 L-1,55 L228,55 L228,45 Z" fill="#373737" fill-rule="nonzero"></path>
            <text id="GET-/" font-family="HelveticaNeue-Italic, Helvetica Neue" font-size="16" font-style="italic" font-weight="normal" fill="#151515">
                <tspan x="62" y="15">GET /</tspan>
            </text>
        </g>
        <g id="Group-2" transform="translate(645.000000, 577.000000)">
            <path id="Line" d="M24.5,17.5 L24.5,27.5 L246.5,27.5 L246.5,31.5 L24.5,31.5 L24.5,41.5 L0.5,29.5 L24.5,17.5 Z" fill="#373737" fill-rule="nonzero"></path>
            <path id="Line" d="M228,45 L252,57 L228,69 L228,59 L-1,59 L-1,55 L228,55 L228,45 Z" fill="#373737" fill-rule="nonzero"></path>
            <text id="GET-/?page=2" font-family="HelveticaNeue-Italic, Helvetica Neue" font-size="16" font-style="italic" font-weight="normal" fill="#151515">
                <tspan x="62" y="15">GET /?page=2</tspan>
            </text>
        </g>
        <g id="Group" transform="translate(731.000000, 301.000000)">
            <g id="File" transform="translate(13.000000, 0.000000)" stroke="#979797">
                <rect id="Rectangle" fill="#50E3C2" x="0" y="0" width="48" height="63"></rect>
                <path d="M8.5,9.5 L40.5,9.5" id="Line-2" stroke-linecap="square"></path>
                <path d="M8.5,24.5 L40.5,24.5" id="Line-2" stroke-linecap="square"></path>
                <path d="M8.5,39.5 L40.5,39.5" id="Line-2" stroke-linecap="square"></path>
                <path d="M8.5,54.5 L40.5,54.5" id="Line-2" stroke-linecap="square"></path>
            </g>
            <text id="index.html" font-family="HelveticaNeue-Italic, Helvetica Neue" font-size="16" font-style="italic" font-weight="normal" fill="#151515">
                <tspan x="0.104" y="78">index.html</tspan>
            </text>
        </g>
        <g id="Group" transform="translate(731.000000, 648.000000)">
            <g id="File" transform="translate(13.000000, 0.000000)" stroke="#979797">
                <rect id="Rectangle" fill="#50E3C2" x="0" y="0" width="48" height="63"></rect>
                <path d="M8.5,9.5 L40.5,9.5" id="Line-2" stroke-linecap="square"></path>
                <path d="M8.5,24.5 L40.5,24.5" id="Line-2" stroke-linecap="square"></path>
                <path d="M8.5,39.5 L40.5,39.5" id="Line-2" stroke-linecap="square"></path>
                <path d="M8.5,54.5 L40.5,54.5" id="Line-2" stroke-linecap="square"></path>
            </g>
            <text id="index.html" font-family="HelveticaNeue-Italic, Helvetica Neue" font-size="16" font-style="italic" font-weight="normal" fill="#151515">
                <tspan x="0.104" y="78">index.html</tspan>
            </text>
        </g>
    </g>
</svg>